<?xml version="1.0" encoding="utf-8"?>
<!-- Generator: Adobe Illustrator 16.0.0, SVG Export Plug-In . SVG Version: 6.00 Build 0)  -->
<!DOCTYPE svg PUBLIC "-//W3C//DTD SVG 1.1//EN" "http://www.w3.org/Graphics/SVG/1.1/DTD/svg11.dtd">
<svg version="1.1" id="Layer_1" xmlns="http://www.w3.org/2000/svg" xmlns:xlink="http://www.w3.org/1999/xlink" x="0px" y="0px"
	 width="262.868px" height="200.783px" viewBox="0 0 262.868 200.783" enable-background="new 0 0 262.868 200.783"
	 xml:space="preserve">
<g id="Layer_1_1_" display="none">
	<g display="inline">
		<path fill="#4176BB" d="M257.197,100.119L174.142,8.336c-0.618-0.838-1.293-1.637-2.019-2.396c1.051,1.913,1.853,3.987,2.32,6.199
			l24.307,121.266c1.264,5.941,0.129,12.053-3.205,17.178c-3.33,5.121-8.457,8.641-14.437,9.908
			c-1.569,0.332-3.172,0.502-4.764,0.502c-10.724,0-20.124-7.627-22.353-18.135l-10.377-51.754l-43.606,99.247
			c-1.149,2.59-2.749,4.916-4.762,6.926c-1.071,1.311-2.294,2.475-3.615,3.508c3.468-0.641,6.771-2.023,9.673-4.053l140.442-56.176
			c10.525-1.543,18.498-9.541,20.543-19.386c0.074-0.338,0.151-0.666,0.209-1.006c0.026-0.156,0.043-0.322,0.067-0.481
			C263.624,112.935,261.907,105.785,257.197,100.119z"/>
		<path fill="#FFFFFF" d="M145.766,71.299l14.104,70.347c1.639,7.721,8.569,13.348,16.478,13.348c1.174,0,2.358-0.125,3.519-0.371
			c4.412-0.936,8.194-3.533,10.652-7.311c2.457-3.779,3.295-8.287,2.357-12.691L168.569,13.35C166.933,5.628,160.002,0,152.096,0
			c-1.176,0-2.361,0.125-3.521,0.373c-0.433,0.094-0.898,0.219-1.408,0.379l-0.164,0.047c-5.071,1.283-9.188,4.75-11.293,9.512
			L83.839,128.347L69.75,58.024c-1.638-7.72-8.571-13.348-16.48-13.348c-1.175,0-2.359,0.125-3.521,0.371
			c-6.057,1.281-10.913,5.768-12.677,11.708l-0.133,0.36L1.45,137.31c-1.822,4.125-1.932,8.713-0.307,12.918
			c1.625,4.203,4.789,7.52,8.908,9.34c2.176,0.963,4.472,1.451,6.826,1.451c6.677,0,12.736-3.943,15.438-10.047l14.899-33.681
			l13.833,69.028c1.637,7.72,8.571,13.347,16.481,13.347c1.175,0,2.36-0.125,3.521-0.371c3.84-0.812,7.17-2.856,9.633-5.918
			l0.233-0.258c1.53-1.504,2.743-3.252,3.604-5.191L145.766,71.299z"/>
	</g>
</g>
<g id="Layer_2">
	<path fill="#4176BB" d="M260.062,120.058c0.026-0.151,0.042-0.312,0.067-0.468c1.024-6.565-0.646-13.521-5.227-19.032
		l-80.792-89.281c-2.317-3.143-5.426-5.761-9.214-7.514c-12.02-5.57-26.275-0.34-31.843,11.683l-63.596,145.45
		c-3.693,4.934-5.497,11.273-4.528,17.849c1.916,13.104,14.103,22.177,27.203,20.247l0.9-0.362c3.672-0.55,7.174-1.957,10.226-4.089
		l136.617-54.646c10.238-1.502,17.994-9.281,19.982-18.857C259.931,120.709,260.006,120.388,260.062,120.058z"/>
	<path opacity="0.3" d="M199.167,133.984L175.528,16.051c-2.211-10.447-12.475-17.123-22.92-14.904
		c-0.557,0.121-1.1,0.272-1.635,0.439c-5.561,1.406-10.44,5.247-12.94,10.903L91.291,118.853L79.4,59.51
		c-2.215-10.448-12.476-17.12-22.923-14.905c-7.177,1.518-12.573,6.841-14.524,13.413L7.433,136.026
		c-4.32,9.771,0.095,21.189,9.856,25.502c9.764,4.322,21.183-0.085,25.505-9.852l10.772-24.348l11.648,58.129
		c2.214,10.441,12.482,17.115,22.925,14.9c4.531-0.958,8.344-3.436,11.038-6.783c1.689-1.658,3.108-3.65,4.126-5.947l46.137-105
		l11.902,59.37c2.215,10.446,12.478,17.116,22.918,14.901C194.708,154.685,201.387,144.423,199.167,133.984z"/>
	<path fill="#FFFFFF" d="M195.19,133.623L171.551,15.69c-2.211-10.447-12.475-17.123-22.92-14.904
		c-0.557,0.121-1.1,0.272-1.635,0.439c-5.561,1.406-10.44,5.247-12.94,10.903L87.314,118.491l-11.89-59.342
		c-2.215-10.448-12.476-17.12-22.923-14.905c-7.177,1.518-12.573,6.841-14.524,13.413L3.456,135.665
		c-4.32,9.771,0.095,21.189,9.856,25.502c9.764,4.322,21.183-0.085,25.505-9.852l10.772-24.348l11.648,58.129
		c2.214,10.441,12.482,17.115,22.925,14.9c4.531-0.958,8.344-3.436,11.038-6.783c1.689-1.658,3.108-3.65,4.126-5.947l46.137-105
		l11.902,59.37c2.215,10.446,12.478,17.116,22.918,14.901C190.732,154.323,197.411,144.062,195.19,133.623z"/>
</g>
</svg>
